ply
format ascii 1.0
element vertex 25
property float x
property float y
property float z
end_header
-2.15359 -0.0232987 2.75231
-0.144726 0.0231674 3.15264
0.761973 -0.00492168 3.73024
1.43994 0.00846548 4.37109
2.20939 0.00421786 5.26561
-3.33218 0.00600103 2.87638
-4.35949 0.00246568 3.09649
-5.2758 -0.00823468 3.14815
-6.05182 -0.00182182 3.95116
-6.62111 -0.0304148 4.63786
-7.70833 0.0298786 6.58787
-7.97386 -0.0112092 7.43377
2.72531 0.0201144 7.4197
-8.60554 -4.74065e-08 8.85665
2.69206 -6.82466e-08 8.59018
-8.12337 0.0233796 10.0504
-7.39151 0.0379529 11.2227
2.52202 0.00848502 9.5918
1.63311 0.0255818 10.6876
-6.40698 0.0183702 12.0983
-5.29963 4.02551e-08 12.7369
0.601347 0.0176397 11.6869
-0.502184 0.0106845 12.484
-4.04444 -0.0141034 13.1438
-2.71144 -0.00275912 13.1366
