ply
format ascii 1.0
element vertex 30
property float x
property float y
property float z
property uchar diffuse_red
property uchar diffuse_green
property uchar diffuse_blue
end_header
-1.15384 0.000678321 2.98685 0 255 0
-2.15359 -0.0232987 2.75231 255 0 255
-0.144726 0.0231674 3.15264 255 0 255
0.761973 -0.00492168 3.73024 255 0 255
1.43994 0.00846548 4.37109 255 0 255
2.20939 0.00421786 5.26561 255 0 255
2.60582 -0.0269086 6.4194 0 255 0
-3.33218 0.00600103 2.87638 255 0 255
-4.35949 0.00246568 3.09649 255 0 255
-5.2758 -0.00823468 3.14815 255 0 255
-6.05182 -0.00182182 3.95116 255 0 255
-6.62111 -0.0304148 4.63786 255 0 255
-7.20219 -0.0109087 5.67021 0 255 0
-7.70833 0.0298786 6.58787 255 0 255
-7.97386 -0.0112092 7.43377 255 0 255
-8.06878 -0.00243582 7.79332 0 255 0
2.72531 0.0201144 7.4197 255 0 255
-8.60554 -4.74065e-08 8.85665 255 0 255
2.69206 -6.82466e-08 8.59018 255 0 255
-8.12337 0.0233796 10.0504 255 0 255
-7.39151 0.0379529 11.2227 255 0 255
2.52202 0.00848502 9.5918 255 0 255
1.63311 0.0255818 10.6876 255 0 255
-6.40698 0.0183702 12.0983 255 0 255
-5.29963 4.02551e-08 12.7369 255 0 255
0.601347 0.0176397 11.6869 255 0 255
-0.502184 0.0106845 12.484 255 0 255
-4.04444 -0.0141034 13.1438 255 0 255
-1.64376 -0.00328833 12.8308 0 255 0
-2.71144 -0.00275912 13.1366 255 0 255
